<?xml version="1.0" standalone="no"?>
<!DOCTYPE svg PUBLIC "-//W3C//DTD SVG 20010904//EN"
 "http://www.w3.org/TR/2001/REC-SVG-20010904/DTD/svg10.dtd">
<svg version="1.0" xmlns="http://www.w3.org/2000/svg"
 width="910.000000pt" height="910.000000pt" viewBox="0 0 910.000000 910.000000"
 preserveAspectRatio="xMidYMid meet">
<metadata>
Created by potrace 1.14, written by Peter Selinger 2001-2017
</metadata>
<g transform="translate(0.000000,910.000000) scale(0.100000,-0.100000)"
fill="#000000" stroke="none">
<path d="M2680 8589 c-465 -51 -914 -237 -1290 -536 -175 -140 -377 -361 -507
-558 -447 -673 -538 -1534 -241 -2279 84 -212 232 -469 362 -628 l47 -58 -54
-67 c-116 -145 -246 -362 -322 -539 -54 -126 -96 -245 -93 -262 2 -9 74 -36
212 -78 116 -35 211 -62 211 -61 1 1 15 40 31 87 60 175 218 463 310 567 l29
32 97 -73 c316 -239 703 -400 1113 -462 150 -23 551 -26 690 -6 130 20 341 68
442 103 102 34 97 34 88 12 -57 -148 -118 -424 -136 -617 -14 -157 -7 -460 16
-601 45 -288 145 -579 281 -825 50 -90 161 -259 217 -330 33 -41 35 -46 20
-62 -14 -16 -164 -118 -240 -164 l-32 -19 107 -191 c59 -105 110 -193 113
-195 12 -8 188 104 289 182 l101 79 67 -54 c187 -151 502 -320 742 -400 396
-131 830 -161 1235 -85 1177 220 2025 1240 2025 2435 0 536 -170 1047 -490
1476 l-87 116 50 64 c288 366 468 814 518 1287 15 144 6 478 -16 621 -82 525
-325 1000 -705 1380 -370 370 -868 621 -1380 695 -160 23 -450 31 -607 16
-457 -44 -904 -222 -1277 -509 l-79 -61 -56 46 c-92 75 -299 207 -416 266
-251 125 -494 202 -770 243 -121 18 -498 26 -615 13z m565 -464 c327 -49 640
-179 902 -372 l73 -53 -69 -93 c-326 -440 -491 -938 -491 -1482 0 -265 38
-516 116 -755 18 -57 32 -106 30 -107 -2 -2 -37 7 -77 21 -277 92 -574 134
-884 123 -258 -9 -419 -38 -685 -124 -180 -58 -505 -216 -495 -241 9 -23 215
-361 224 -366 4 -3 74 29 155 70 475 237 1024 280 1521 117 61 -20 139 -49
174 -64 35 -16 67 -29 71 -29 4 0 31 52 60 115 l53 115 77 -130 c42 -71 96
-155 120 -186 42 -56 43 -57 26 -85 -10 -16 -14 -29 -9 -29 4 -1 19 -10 32
-21 28 -23 35 -16 -109 -113 -441 -297 -1026 -406 -1548 -290 -670 149 -1222
628 -1460 1266 -300 801 -66 1709 578 2250 330 278 704 435 1145 482 77 8 371
-4 470 -19z m4576 -4070 c158 -236 263 -506 316 -810 26 -152 23 -480 -5 -640
-89 -491 -328 -913 -691 -1217 -565 -473 -1344 -605 -2032 -343 -177 68 -410
199 -517 292 l-32 28 51 65 c55 70 146 206 172 256 l16 31 -189 106 c-103 59
-193 107 -199 107 -6 0 -15 -10 -22 -22 -20 -41 -141 -218 -148 -218 -19 1
-147 203 -217 342 -326 649 -271 1458 137 2043 83 118 76 112 94 89 56 -71
152 -227 202 -326 l58 -117 154 65 c85 35 159 64 165 64 5 0 51 -16 101 -35
201 -77 414 -129 630 -154 114 -14 422 -14 540 -1 436 49 877 223 1210 478
l90 69 28 -31 c15 -17 55 -71 88 -121z"/>
<path d="M5195 3429 c-71 -15 -162 -36 -201 -44 l-72 -16 9 -37 c17 -73 39
-289 39 -388 0 -192 -32 -415 -85 -588 -14 -44 -24 -81 -22 -81 4 -3 418 -145
422 -145 8 0 54 163 79 275 44 198 51 277 50 540 0 210 -4 270 -22 378 -12 70
-22 130 -22 132 0 10 -48 3 -175 -26z"/>
<path d="M477 3134 c-24 -275 7 -592 84 -869 32 -113 124 -361 138 -370 7 -4
281 118 380 169 l29 15 -39 94 c-50 122 -93 274 -120 423 -18 97 -22 159 -23
341 l-1 223 -40 5 c-22 3 -105 12 -185 20 -80 9 -161 18 -181 21 l-36 5 -6
-77z"/>
<path d="M1112 1629 l-182 -130 29 -42 c89 -130 263 -310 440 -456 147 -122
549 -357 571 -334 5 4 47 97 94 206 l84 198 -100 50 c-213 107 -367 217 -529
379 -58 58 -131 140 -163 183 -32 42 -59 77 -60 77 0 0 -83 -59 -184 -131z"/>
<path d="M3530 999 c-56 -23 -293 -69 -415 -80 -156 -14 -356 -5 -504 21 -58
11 -107 18 -109 16 -6 -7 -101 -431 -97 -435 10 -10 194 -40 302 -50 318 -29
603 -3 908 81 61 16 113 32 117 34 3 2 -25 99 -64 214 -76 228 -74 225 -138
199z"/>
</g>
</svg>
